<svg width="22" height="22" viewBox="0 0 22 22" fill="none" xmlns="http://www.w3.org/2000/svg">
<g clip-path="url(#clip0)">
<path fill-rule="evenodd" clip-rule="evenodd" d="M5.96259 14.2593L12.0568 12.2098C12.1629 12.1741 12.244 12.09 12.276 11.9825L14.1144 5.80194C14.1945 5.5326 13.943 5.26792 13.6692 5.33348L7.21101 6.87958C7.08227 6.91042 6.98397 7.0105 6.95543 7.13986L5.481 13.8239C5.41975 14.1017 5.69399 14.3497 5.96259 14.2593Z" fill="white"/>
<path d="M4.13408 12.7165L3.16053 3.49807C3.1472 3.37177 3.25312 3.26235 3.37989 3.2716L12.5204 3.93795L6.35537 5.59583C6.06627 5.67364 5.83999 5.90364 5.76723 6.19412L4.13408 12.7165Z" fill="white"/>
<path fill-rule="evenodd" clip-rule="evenodd" d="M16.0374 7.74065L9.94322 9.79024C9.83711 9.82592 9.75597 9.91003 9.72401 10.0175L7.88558 16.1981C7.80546 16.4674 8.05701 16.7321 8.33081 16.6665L14.789 15.1204C14.9177 15.0896 15.016 14.9895 15.0446 14.8601L16.519 8.17605C16.5803 7.8983 16.306 7.65031 16.0374 7.74065Z" fill="white"/>
<path d="M17.8659 9.28352L18.8395 18.5019C18.8528 18.6282 18.7469 18.7376 18.6201 18.7284L9.47958 18.0621L15.6446 16.4042C15.9337 16.3264 16.16 16.0964 16.2328 15.8059L17.8659 9.28352Z" fill="white"/>
</g>
<defs>
<clipPath id="clip0">
<rect width="22" height="22" fill="white"/>
</clipPath>
</defs>
</svg>
